<svg version="1.1" xmlns="http://www.w3.org/2000/svg" xmlns:xlink="http://www.w3.org/1999/xlink" width="900" height="800"><defs><clipPath id="FUwKeKWrrtSX"><path fill="none" stroke="none" d=" M 0 0 L 900 0 L 900 800 L 0 800 L 0 0 Z"/></clipPath></defs><g transform="scale(1,1)" clip-path="url(#FUwKeKWrrtSX)"><g><rect fill="rgb(255,255,255)" stroke="none" x="0" y="0" width="900" height="800" fill-opacity="1"/><path fill="none" stroke="rgb(192,192,192)" paint-order="fill stroke markers" d=" M 1.5 0.5 L 1.5 800.5 M 1.5 0.5 L 1.5 800.5 M 45.5 0.5 L 45.5 800.5 M 90.5 0.5 L 90.5 800.5 M 134.5 0.5 L 134.5 800.5 M 178.5 0.5 L 178.5 800.5 M 223.5 0.5 L 223.5 800.5 M 267.5 0.5 L 267.5 800.5 M 311.5 0.5 L 311.5 800.5 M 356.5 0.5 L 356.5 800.5 M 400.5 0.5 L 400.5 800.5 M 444.5 0.5 L 444.5 800.5 M 489.5 0.5 L 489.5 800.5 M 533.5 0.5 L 533.5 800.5 M 577.5 0.5 L 577.5 800.5 M 621.5 0.5 L 621.5 800.5 M 666.5 0.5 L 666.5 800.5 M 710.5 0.5 L 710.5 800.5 M 754.5 0.5 L 754.5 800.5 M 799.5 0.5 L 799.5 800.5 M 843.5 0.5 L 843.5 800.5 M 887.5 0.5 L 887.5 800.5" stroke-opacity="1" stroke-linecap="round" stroke-linejoin="round" stroke-miterlimit="10"/><path fill="none" stroke="rgb(192,192,192)" paint-order="fill stroke markers" d=" M 10.5 0.5 L 10.5 800.5 M 19.5 0.5 L 19.5 800.5 M 28.5 0.5 L 28.5 800.5 M 37.5 0.5 L 37.5 800.5 M 54.5 0.5 L 54.5 800.5 M 63.5 0.5 L 63.5 800.5 M 72.5 0.5 L 72.5 800.5 M 81.5 0.5 L 81.5 800.5 M 99.5 0.5 L 99.5 800.5 M 108.5 0.5 L 108.5 800.5 M 116.5 0.5 L 116.5 800.5 M 125.5 0.5 L 125.5 800.5 M 143.5 0.5 L 143.5 800.5 M 152.5 0.5 L 152.5 800.5 M 161.5 0.5 L 161.5 800.5 M 170.5 0.5 L 170.5 800.5 M 187.5 0.5 L 187.5 800.5 M 196.5 0.5 L 196.5 800.5 M 205.5 0.5 L 205.5 800.5 M 214.5 0.5 L 214.5 800.5 M 232.5 0.5 L 232.5 800.5 M 240.5 0.5 L 240.5 800.5 M 249.5 0.5 L 249.5 800.5 M 258.5 0.5 L 258.5 800.5 M 276.5 0.5 L 276.5 800.5 M 285.5 0.5 L 285.5 800.5 M 294.5 0.5 L 294.5 800.5 M 302.5 0.5 L 302.5 800.5 M 320.5 0.5 L 320.5 800.5 M 329.5 0.5 L 329.5 800.5 M 338.5 0.5 L 338.5 800.5 M 347.5 0.5 L 347.5 800.5 M 365.5 0.5 L 365.5 800.5 M 373.5 0.5 L 373.5 800.5 M 382.5 0.5 L 382.5 800.5 M 391.5 0.5 L 391.5 800.5 M 409.5 0.5 L 409.5 800.5 M 418.5 0.5 L 418.5 800.5 M 427.5 0.5 L 427.5 800.5 M 435.5 0.5 L 435.5 800.5 M 453.5 0.5 L 453.5 800.5 M 462.5 0.5 L 462.5 800.5 M 471.5 0.5 L 471.5 800.5 M 480.5 0.5 L 480.5 800.5 M 497.5 0.5 L 497.5 800.5 M 506.5 0.5 L 506.5 800.5 M 515.5 0.5 L 515.5 800.5 M 524.5 0.5 L 524.5 800.5 M 542.5 0.5 L 542.5 800.5 M 551.5 0.5 L 551.5 800.5 M 559.5 0.5 L 559.5 800.5 M 568.5 0.5 L 568.5 800.5 M 586.5 0.5 L 586.5 800.5 M 595.5 0.5 L 595.5 800.5 M 604.5 0.5 L 604.5 800.5 M 613.5 0.5 L 613.5 800.5 M 630.5 0.5 L 630.5 800.5 M 639.5 0.5 L 639.5 800.5 M 648.5 0.5 L 648.5 800.5 M 657.5 0.5 L 657.5 800.5 M 675.5 0.5 L 675.5 800.5 M 684.5 0.5 L 684.5 800.5 M 692.5 0.5 L 692.5 800.5 M 701.5 0.5 L 701.5 800.5 M 719.5 0.5 L 719.5 800.5 M 728.5 0.5 L 728.5 800.5 M 737.5 0.5 L 737.5 800.5 M 746.5 0.5 L 746.5 800.5 M 763.5 0.5 L 763.5 800.5 M 772.5 0.5 L 772.5 800.5 M 781.5 0.5 L 781.5 800.5 M 790.5 0.5 L 790.5 800.5 M 808.5 0.5 L 808.5 800.5 M 816.5 0.5 L 816.5 800.5 M 825.5 0.5 L 825.5 800.5 M 834.5 0.5 L 834.5 800.5 M 852.5 0.5 L 852.5 800.5 M 861.5 0.5 L 861.5 800.5 M 870.5 0.5 L 870.5 800.5 M 878.5 0.5 L 878.5 800.5 M 896.5 0.5 L 896.5 800.5" stroke-opacity="0.23529411764705882" stroke-linecap="round" stroke-linejoin="round" stroke-miterlimit="10"/><path fill="none" stroke="rgb(192,192,192)" paint-order="fill stroke markers" d=" M 0.5 32.5 L 900.5 32.5 M 0.5 32.5 L 900.5 32.5 M 0.5 77.5 L 900.5 77.5 M 0.5 121.5 L 900.5 121.5 M 0.5 165.5 L 900.5 165.5 M 0.5 210.5 L 900.5 210.5 M 0.5 254.5 L 900.5 254.5 M 0.5 298.5 L 900.5 298.5 M 0.5 343.5 L 900.5 343.5 M 0.5 387.5 L 900.5 387.5 M 0.5 431.5 L 900.5 431.5 M 0.5 476.5 L 900.5 476.5 M 0.5 520.5 L 900.5 520.5 M 0.5 564.5 L 900.5 564.5 M 0.5 608.5 L 900.5 608.5 M 0.5 653.5 L 900.5 653.5 M 0.5 697.5 L 900.5 697.5 M 0.5 741.5 L 900.5 741.5 M 0.5 786.5 L 900.5 786.5" stroke-opacity="1" stroke-linecap="round" stroke-linejoin="round" stroke-miterlimit="10"/><path fill="none" stroke="rgb(192,192,192)" paint-order="fill stroke markers" d=" M 0.5 6.5 L 900.5 6.5 M 0.5 6.5 L 900.5 6.5 M 0.5 15.5 L 900.5 15.5 M 0.5 24.5 L 900.5 24.5 M 0.5 41.5 L 900.5 41.5 M 0.5 50.5 L 900.5 50.5 M 0.5 59.5 L 900.5 59.5 M 0.5 68.5 L 900.5 68.5 M 0.5 86.5 L 900.5 86.5 M 0.5 94.5 L 900.5 94.5 M 0.5 103.5 L 900.5 103.5 M 0.5 112.5 L 900.5 112.5 M 0.5 130.5 L 900.5 130.5 M 0.5 139.5 L 900.5 139.5 M 0.5 148.5 L 900.5 148.5 M 0.5 156.5 L 900.5 156.5 M 0.5 174.5 L 900.5 174.5 M 0.5 183.5 L 900.5 183.5 M 0.5 192.5 L 900.5 192.5 M 0.5 201.5 L 900.5 201.5 M 0.5 219.5 L 900.5 219.5 M 0.5 227.5 L 900.5 227.5 M 0.5 236.5 L 900.5 236.5 M 0.5 245.5 L 900.5 245.5 M 0.5 263.5 L 900.5 263.5 M 0.5 272.5 L 900.5 272.5 M 0.5 281.5 L 900.5 281.5 M 0.5 289.5 L 900.5 289.5 M 0.5 307.5 L 900.5 307.5 M 0.5 316.5 L 900.5 316.5 M 0.5 325.5 L 900.5 325.5 M 0.5 334.5 L 900.5 334.5 M 0.5 351.5 L 900.5 351.5 M 0.5 360.5 L 900.5 360.5 M 0.5 369.5 L 900.5 369.5 M 0.5 378.5 L 900.5 378.5 M 0.5 396.5 L 900.5 396.5 M 0.5 405.5 L 900.5 405.5 M 0.5 413.5 L 900.5 413.5 M 0.5 422.5 L 900.5 422.5 M 0.5 440.5 L 900.5 440.5 M 0.5 449.5 L 900.5 449.5 M 0.5 458.5 L 900.5 458.5 M 0.5 467.5 L 900.5 467.5 M 0.5 484.5 L 900.5 484.5 M 0.5 493.5 L 900.5 493.5 M 0.5 502.5 L 900.5 502.5 M 0.5 511.5 L 900.5 511.5 M 0.5 529.5 L 900.5 529.5 M 0.5 538.5 L 900.5 538.5 M 0.5 546.5 L 900.5 546.5 M 0.5 555.5 L 900.5 555.5 M 0.5 573.5 L 900.5 573.5 M 0.5 582.5 L 900.5 582.5 M 0.5 591.5 L 900.5 591.5 M 0.5 600.5 L 900.5 600.5 M 0.5 617.5 L 900.5 617.5 M 0.5 626.5 L 900.5 626.5 M 0.5 635.5 L 900.5 635.5 M 0.5 644.5 L 900.5 644.5 M 0.5 662.5 L 900.5 662.5 M 0.5 670.5 L 900.5 670.5 M 0.5 679.5 L 900.5 679.5 M 0.5 688.5 L 900.5 688.5 M 0.5 706.5 L 900.5 706.5 M 0.5 715.5 L 900.5 715.5 M 0.5 724.5 L 900.5 724.5 M 0.5 732.5 L 900.5 732.5 M 0.5 750.5 L 900.5 750.5 M 0.5 759.5 L 900.5 759.5 M 0.5 768.5 L 900.5 768.5 M 0.5 777.5 L 900.5 777.5 M 0.5 795.5 L 900.5 795.5" stroke-opacity="0.23529411764705882" stroke-linecap="round" stroke-linejoin="round" stroke-miterlimit="10"/><path fill="none" stroke="rgb(97,97,97)" paint-order="fill stroke markers" d=" M 569.5384305924929 689.3993585046164 C 569.5384305924929 856.1927568184626 434.32566566364716 991.4055217473053 267.5322673497973 991.4055217473053 C 100.73886903594737 991.4055217473053 -34.47389589289838 856.1927568184626 -34.47389589289838 689.3993585046164 C -34.47389589289838 522.6059601907702 100.73886903594737 387.3931952619275 267.5322673497973 387.3931952619275 C 434.32566566364716 387.3931952619275 569.5384305924929 522.6059601907702 569.5384305924929 689.3993585046164 Z" stroke-opacity="0.8" stroke-linejoin="round" stroke-miterlimit="10" stroke-width="2.5" stroke-dasharray="2.5,3"/><path fill="none" stroke="rgb(97,97,97)" paint-order="fill stroke markers" d=" M 835.381059872113 689.3993585046164 C 835.381059872113 1003.0135868245146 581.1464956697024 1257.2481510269195 267.5322673497973 1257.2481510269195 C -46.08196097010796 1257.2481510269195 -300.3165251725185 1003.0135868245146 -300.3165251725185 689.3993585046164 C -300.3165251725185 375.7851301847181 -46.08196097010796 121.55056598231329 267.5322673497973 121.55056598231329 C 581.1464956697024 121.55056598231329 835.381059872113 375.7851301847181 835.381059872113 689.3993585046164 Z" stroke-opacity="0.8" stroke-linejoin="round" stroke-miterlimit="10" stroke-width="2.5" stroke-dasharray="2.5,3"/><path fill="none" stroke="rgb(97,97,97)" paint-order="fill stroke markers" d=" M 655.2732318781971 689.3993585046164 C 655.2732318781971 903.5427800983294 481.67568894351507 1077.1403230330075 267.5322673497973 1077.1403230330075 C 53.38884575607949 1077.1403230330075 -120.2086971786025 903.5427800983294 -120.2086971786025 689.3993585046164 C -120.2086971786025 475.2559369109034 53.38884575607949 301.6583939762253 267.5322673497973 301.6583939762253 C 481.67568894351507 301.6583939762253 655.2732318781971 475.2559369109034 655.2732318781971 689.3993585046164 Z" stroke-opacity="0.8" stroke-linejoin="round" stroke-miterlimit="10" stroke-width="2.5" stroke-dasharray="2.5,3"/><path fill="none" stroke="rgb(97,97,97)" paint-order="fill stroke markers" d=" M 862.1865866616358 689.3993585046164 C 862.1865866616358 1017.8178704815484 595.9507793267367 1284.0536778164417 267.5322673497973 1284.0536778164417 C -60.88624462714216 1284.0536778164417 -327.12205196204127 1017.8178704815484 -327.12205196204127 689.3993585046164 C -327.12205196204127 360.9808465276843 -60.88624462714216 94.74503919279118 267.5322673497973 94.74503919279118 C 595.9507793267367 94.74503919279118 862.1865866616358 360.9808465276843 862.1865866616358 689.3993585046164 Z" stroke-opacity="0.8" stroke-linejoin="round" stroke-miterlimit="10" stroke-width="2.5" stroke-dasharray="2.5,3"/><path fill="none" stroke="rgb(0,0,0)" paint-order="fill stroke markers" d=" M 559.8115833267914 165.98040297772124 C 563.4335183256393 156.96734307729113 565.2948275124264 147.34373875047962 565.2948275124264 137.6301574384907" stroke-opacity="1" stroke-linecap="round" stroke-linejoin="round" stroke-miterlimit="10" stroke-width="2.5"/><path fill="none" stroke="rgb(0,0,0)" paint-order="fill stroke markers" d=" M 562.1762194579006 422.139849694331 C 572.5702964757638 407.22893448241103 578.1429423586281 389.48974832295534 578.1429423586281 371.31360380574995" stroke-opacity="1" stroke-linecap="round" stroke-linejoin="round" stroke-miterlimit="10" stroke-width="2.5"/><path fill="none" stroke="rgb(160,160,160)" paint-order="fill stroke markers" d=" M 755.6305152346674 689.3993585046164 C 755.6305152346674 958.9685772305545 537.1014860757414 1177.4976063894758 267.5322673497973 1177.4976063894758 C -2.036951376146817 1177.4976063894758 -220.56598053507292 958.9685772305545 -220.56598053507292 689.3993585046164 C -220.56598053507292 419.83013977867836 -2.036951376146817 201.30111061975714 267.5322673497973 201.30111061975714 C 537.1014860757414 201.30111061975714 755.6305152346674 419.83013977867836 755.6305152346674 689.3993585046164 Z" stroke-opacity="0.8" stroke-linecap="round" stroke-linejoin="round" stroke-miterlimit="10" stroke-width="2.5"/><path fill="none" stroke="rgb(0,0,0)" paint-order="fill stroke markers" d=" M 570.5275126313792 295.96436592307884 C 577.0736382091816 283.1127481287284 580.4861294209082 268.89463486714646 580.4861294209082 254.4718806221203" stroke-opacity="1" stroke-linecap="round" stroke-linejoin="round" stroke-miterlimit="10" stroke-width="2.5"/><path fill="none" stroke="rgb(97,97,97)" paint-order="fill stroke markers" d=" M 186.94955636658017 805 L 751.5830657663736 -5" stroke-opacity="0.8" stroke-linejoin="round" stroke-miterlimit="10" stroke-width="2.5" stroke-dasharray="10.5,8"/><path fill="none" stroke="rgb(97,97,97)" paint-order="fill stroke markers" d=" M 267.5322673497972 805 L 267.5322673497971 -5" stroke-opacity="0.8" stroke-linejoin="round" stroke-miterlimit="10" stroke-width="2.5" stroke-dasharray="10.5,8"/><path fill="none" stroke="rgb(97,97,97)" paint-order="fill stroke markers" d=" M 134.33276763072848 -5 L 905 304.6957805916975" stroke-opacity="0.8" stroke-linejoin="round" stroke-miterlimit="10" stroke-width="2.5" stroke-dasharray="10.5,8"/><path fill="none" stroke="rgb(97,97,97)" paint-order="fill stroke markers" d=" M 221.07767657298194 805 L 546.5794907711593 -5" stroke-opacity="0.8" stroke-linejoin="round" stroke-miterlimit="10" stroke-width="2.5" stroke-dasharray="10.5,8"/><path fill="none" stroke="rgb(97,97,97)" paint-order="fill stroke markers" d=" M -5 137.63015743849078 L 905 137.6301574384907" stroke-opacity="0.8" stroke-linejoin="round" stroke-miterlimit="10" stroke-width="2.5" stroke-dasharray="10.5,8"/><path fill="none" stroke="rgb(97,97,97)" paint-order="fill stroke markers" d=" M -5 371.31360380575 L 905 371.31360380574995" stroke-opacity="0.8" stroke-linejoin="round" stroke-miterlimit="10" stroke-width="2.5" stroke-dasharray="10.5,8"/><path fill="none" stroke="rgb(97,97,97)" paint-order="fill stroke markers" d=" M -5 26.773554335556113 L 905 661.1149044019625" stroke-opacity="0.8" stroke-linejoin="round" stroke-miterlimit="10" stroke-width="2.5" stroke-dasharray="10.5,8"/><path fill="none" stroke="rgb(97,97,97)" paint-order="fill stroke markers" d=" M -5 254.47188062212035 L 905 254.47188062212035" stroke-opacity="0.8" stroke-linejoin="round" stroke-miterlimit="10" stroke-width="2.5" stroke-dasharray="10.5,8"/><path fill="none" stroke="rgb(97,97,97)" paint-order="fill stroke markers" d=" M -5 2.812528430579014 L 905 466.3319367356304" stroke-opacity="0.8" stroke-linejoin="round" stroke-miterlimit="10" stroke-width="2.5" stroke-dasharray="10.5,8"/><path fill="none" stroke="rgb(97,97,97)" paint-order="fill stroke markers" d=" M 489.0677917494806 254.47188062212035 L 267.53226734979717 254.47188062212035" stroke-opacity="0.8" stroke-linecap="round" stroke-linejoin="round" stroke-miterlimit="10" stroke-width="2.5"/><path fill="none" stroke="rgb(97,97,97)" paint-order="fill stroke markers" d=" M 267.53226734979717 121.55056598231332 L 267.53226734979717 387.3931952619274" stroke-opacity="0.8" stroke-linecap="round" stroke-linejoin="round" stroke-miterlimit="10" stroke-width="2.5"/><path fill="none" stroke="rgb(97,97,97)" paint-order="fill stroke markers" d=" M 489.2629784185661 137.63015743849076 L 489.26297841856615 371.31360380574995" stroke-opacity="0.8" stroke-linecap="round" stroke-linejoin="round" stroke-miterlimit="10" stroke-width="2.5"/><path fill="none" stroke="rgb(0,0,0)" paint-order="fill stroke markers" d=" M 311.8393722297339 387.3931952619274 L 223.22516246986052 387.3931952619274" stroke-opacity="1" stroke-linecap="round" stroke-linejoin="round" stroke-miterlimit="10" stroke-width="5"/><path fill="none" stroke="rgb(0,0,0)" paint-order="fill stroke markers" d=" M 223.22516246986044 121.55056598231334 L 311.8393722297339 121.55056598231329" stroke-opacity="1" stroke-linecap="round" stroke-linejoin="round" stroke-miterlimit="10" stroke-width="5"/><path fill="none" stroke="rgb(0,0,0)" paint-order="fill stroke markers" d=" M 509.4288929254912 385.37082735920774 L 469.09706391164104 357.25638025229216" stroke-opacity="1" stroke-linecap="round" stroke-linejoin="round" stroke-miterlimit="10" stroke-width="5"/><path fill="none" stroke="rgb(0,0,0)" paint-order="fill stroke markers" d=" M 466.8006422086176 128.6035757255681 L 511.72531462851464 146.65673915141338" stroke-opacity="1" stroke-linecap="round" stroke-linejoin="round" stroke-miterlimit="10" stroke-width="5"/><path fill="rgb(21,101,192)" stroke="none" paint-order="stroke fill markers" d=" M 494.0677917494806 254.47188062212035 C 494.0677917494806 257.2333043712743 491.82921549863454 259.47188062212035 489.0677917494806 259.47188062212035 C 486.30636800032664 259.47188062212035 484.0677917494806 257.2333043712743 484.0677917494806 254.47188062212035 C 484.0677917494806 251.71045687296638 486.30636800032664 249.47188062212035 489.0677917494806 249.47188062212035 C 491.82921549863454 249.47188062212035 494.0677917494806 251.71045687296638 494.0677917494806 254.47188062212035 Z" fill-opacity="1"/><path fill="none" stroke="rgb(0,0,0)" paint-order="fill stroke markers" d=" M 494.0677917494806 254.47188062212035 C 494.0677917494806 257.2333043712743 491.82921549863454 259.47188062212035 489.0677917494806 259.47188062212035 C 486.30636800032664 259.47188062212035 484.0677917494806 257.2333043712743 484.0677917494806 254.47188062212035 C 484.0677917494806 251.71045687296638 486.30636800032664 249.47188062212035 489.0677917494806 249.47188062212035 C 491.82921549863454 249.47188062212035 494.0677917494806 251.71045687296638 494.0677917494806 254.47188062212035 Z" stroke-opacity="1" stroke-linecap="round" stroke-linejoin="round" stroke-miterlimit="10"/><text fill="none" stroke="rgb(255,255,255)" font-family="geogebra-sans-serif, sans-serif" font-size="16px" font-style="normal" font-weight="normal" text-decoration="normal" x="493" y="244" text-anchor="start" dominant-baseline="alphabetic" stroke-opacity="1" stroke-linecap="round" stroke-linejoin="bevel" stroke-miterlimit="10" stroke-width="3">A</text><text fill="rgb(21,101,192)" stroke="none" font-family="geogebra-sans-serif, sans-serif" font-size="16px" font-style="normal" font-weight="normal" text-decoration="normal" x="493" y="244" text-anchor="start" dominant-baseline="alphabetic" fill-opacity="1">A</text><path fill="rgb(21,101,192)" stroke="none" paint-order="stroke fill markers" d=" M 272.53226734979717 254.47188062212035 C 272.53226734979717 257.2333043712743 270.2936910989511 259.47188062212035 267.53226734979717 259.47188062212035 C 264.7708436006432 259.47188062212035 262.53226734979717 257.2333043712743 262.53226734979717 254.47188062212035 C 262.53226734979717 251.71045687296638 264.7708436006432 249.47188062212035 267.53226734979717 249.47188062212035 C 270.2936910989511 249.47188062212035 272.53226734979717 251.71045687296638 272.53226734979717 254.47188062212035 Z" fill-opacity="1"/><path fill="none" stroke="rgb(0,0,0)" paint-order="fill stroke markers" d=" M 272.53226734979717 254.47188062212035 C 272.53226734979717 257.2333043712743 270.2936910989511 259.47188062212035 267.53226734979717 259.47188062212035 C 264.7708436006432 259.47188062212035 262.53226734979717 257.2333043712743 262.53226734979717 254.47188062212035 C 262.53226734979717 251.71045687296638 264.7708436006432 249.47188062212035 267.53226734979717 249.47188062212035 C 270.2936910989511 249.47188062212035 272.53226734979717 251.71045687296638 272.53226734979717 254.47188062212035 Z" stroke-opacity="1" stroke-linecap="round" stroke-linejoin="round" stroke-miterlimit="10"/><text fill="none" stroke="rgb(255,255,255)" font-family="geogebra-sans-serif, sans-serif" font-size="16px" font-style="normal" font-weight="normal" text-decoration="normal" x="272" y="244" text-anchor="start" dominant-baseline="alphabetic" stroke-opacity="1" stroke-linecap="round" stroke-linejoin="bevel" stroke-miterlimit="10" stroke-width="3">B</text><text fill="rgb(21,101,192)" stroke="none" font-family="geogebra-sans-serif, sans-serif" font-size="16px" font-style="normal" font-weight="normal" text-decoration="normal" x="272" y="244" text-anchor="start" dominant-baseline="alphabetic" fill-opacity="1">B</text><path fill="rgb(21,101,192)" stroke="none" paint-order="stroke fill markers" d=" M 272.53226734979717 387.3931952619274 C 272.53226734979717 390.15461901108137 270.2936910989511 392.3931952619274 267.53226734979717 392.3931952619274 C 264.7708436006432 392.3931952619274 262.53226734979717 390.15461901108137 262.53226734979717 387.3931952619274 C 262.53226734979717 384.63177151277347 264.7708436006432 382.3931952619274 267.53226734979717 382.3931952619274 C 270.2936910989511 382.3931952619274 272.53226734979717 384.63177151277347 272.53226734979717 387.3931952619274 Z" fill-opacity="1"/><path fill="none" stroke="rgb(0,0,0)" paint-order="fill stroke markers" d=" M 272.53226734979717 387.3931952619274 C 272.53226734979717 390.15461901108137 270.2936910989511 392.3931952619274 267.53226734979717 392.3931952619274 C 264.7708436006432 392.3931952619274 262.53226734979717 390.15461901108137 262.53226734979717 387.3931952619274 C 262.53226734979717 384.63177151277347 264.7708436006432 382.3931952619274 267.53226734979717 382.3931952619274 C 270.2936910989511 382.3931952619274 272.53226734979717 384.63177151277347 272.53226734979717 387.3931952619274 Z" stroke-opacity="1" stroke-linecap="round" stroke-linejoin="round" stroke-miterlimit="10"/><text fill="none" stroke="rgb(255,255,255)" font-family="geogebra-sans-serif, sans-serif" font-size="16px" font-style="normal" font-weight="normal" text-decoration="normal" x="272" y="377" text-anchor="start" dominant-baseline="alphabetic" stroke-opacity="1" stroke-linecap="round" stroke-linejoin="bevel" stroke-miterlimit="10" stroke-width="3">C</text><text fill="rgb(21,101,192)" stroke="none" font-family="geogebra-sans-serif, sans-serif" font-size="16px" font-style="normal" font-weight="normal" text-decoration="normal" x="272" y="377" text-anchor="start" dominant-baseline="alphabetic" fill-opacity="1">C</text><path fill="rgb(21,101,192)" stroke="none" paint-order="stroke fill markers" d=" M 494.26297841856615 371.31360380574995 C 494.26297841856615 374.0750275549039 492.0244021677201 376.31360380574995 489.26297841856615 376.31360380574995 C 486.5015546694122 376.31360380574995 484.26297841856615 374.0750275549039 484.26297841856615 371.31360380574995 C 484.26297841856615 368.552180056596 486.5015546694122 366.31360380574995 489.26297841856615 366.31360380574995 C 492.0244021677201 366.31360380574995 494.26297841856615 368.552180056596 494.26297841856615 371.31360380574995 Z" fill-opacity="1"/><path fill="none" stroke="rgb(0,0,0)" paint-order="fill stroke markers" d=" M 494.26297841856615 371.31360380574995 C 494.26297841856615 374.0750275549039 492.0244021677201 376.31360380574995 489.26297841856615 376.31360380574995 C 486.5015546694122 376.31360380574995 484.26297841856615 374.0750275549039 484.26297841856615 371.31360380574995 C 484.26297841856615 368.552180056596 486.5015546694122 366.31360380574995 489.26297841856615 366.31360380574995 C 492.0244021677201 366.31360380574995 494.26297841856615 368.552180056596 494.26297841856615 371.31360380574995 Z" stroke-opacity="1" stroke-linecap="round" stroke-linejoin="round" stroke-miterlimit="10"/><text fill="none" stroke="rgb(255,255,255)" font-family="geogebra-sans-serif, sans-serif" font-size="16px" font-style="normal" font-weight="normal" text-decoration="normal" x="493" y="361" text-anchor="start" dominant-baseline="alphabetic" stroke-opacity="1" stroke-linecap="round" stroke-linejoin="bevel" stroke-miterlimit="10" stroke-width="3">D</text><text fill="rgb(21,101,192)" stroke="none" font-family="geogebra-sans-serif, sans-serif" font-size="16px" font-style="normal" font-weight="normal" text-decoration="normal" x="493" y="361" text-anchor="start" dominant-baseline="alphabetic" fill-opacity="1">D</text><path fill="rgb(21,101,192)" stroke="none" paint-order="stroke fill markers" d=" M 272.53226734979717 121.55056598231332 C 272.53226734979717 124.31198973146728 270.2936910989511 126.55056598231332 267.53226734979717 126.55056598231332 C 264.7708436006432 126.55056598231332 262.53226734979717 124.31198973146728 262.53226734979717 121.55056598231332 C 262.53226734979717 118.78914223315935 264.7708436006432 116.55056598231332 267.53226734979717 116.55056598231332 C 270.2936910989511 116.55056598231332 272.53226734979717 118.78914223315935 272.53226734979717 121.55056598231332 Z" fill-opacity="1"/><path fill="none" stroke="rgb(0,0,0)" paint-order="fill stroke markers" d=" M 272.53226734979717 121.55056598231332 C 272.53226734979717 124.31198973146728 270.2936910989511 126.55056598231332 267.53226734979717 126.55056598231332 C 264.7708436006432 126.55056598231332 262.53226734979717 124.31198973146728 262.53226734979717 121.55056598231332 C 262.53226734979717 118.78914223315935 264.7708436006432 116.55056598231332 267.53226734979717 116.55056598231332 C 270.2936910989511 116.55056598231332 272.53226734979717 118.78914223315935 272.53226734979717 121.55056598231332 Z" stroke-opacity="1" stroke-linecap="round" stroke-linejoin="round" stroke-miterlimit="10"/><text fill="none" stroke="rgb(255,255,255)" font-family="geogebra-sans-serif, sans-serif" font-size="16px" font-style="normal" font-weight="normal" text-decoration="normal" x="272" y="112" text-anchor="start" dominant-baseline="alphabetic" stroke-opacity="1" stroke-linecap="round" stroke-linejoin="bevel" stroke-miterlimit="10" stroke-width="3">C'</text><text fill="rgb(21,101,192)" stroke="none" font-family="geogebra-sans-serif, sans-serif" font-size="16px" font-style="normal" font-weight="normal" text-decoration="normal" x="272" y="112" text-anchor="start" dominant-baseline="alphabetic" fill-opacity="1">C'</text><path fill="rgb(21,101,192)" stroke="none" paint-order="stroke fill markers" d=" M 494.2629784185661 137.63015743849076 C 494.2629784185661 140.39158118764473 492.02440216772004 142.63015743849076 489.2629784185661 142.63015743849076 C 486.50155466941214 142.63015743849076 484.2629784185661 140.39158118764473 484.2629784185661 137.63015743849076 C 484.2629784185661 134.86873368933678 486.50155466941214 132.63015743849076 489.2629784185661 132.63015743849076 C 492.02440216772004 132.63015743849076 494.2629784185661 134.86873368933678 494.2629784185661 137.63015743849076 Z" fill-opacity="1"/><path fill="none" stroke="rgb(0,0,0)" paint-order="fill stroke markers" d=" M 494.2629784185661 137.63015743849076 C 494.2629784185661 140.39158118764473 492.02440216772004 142.63015743849076 489.2629784185661 142.63015743849076 C 486.50155466941214 142.63015743849076 484.2629784185661 140.39158118764473 484.2629784185661 137.63015743849076 C 484.2629784185661 134.86873368933678 486.50155466941214 132.63015743849076 489.2629784185661 132.63015743849076 C 492.02440216772004 132.63015743849076 494.2629784185661 134.86873368933678 494.2629784185661 137.63015743849076 Z" stroke-opacity="1" stroke-linecap="round" stroke-linejoin="round" stroke-miterlimit="10"/><text fill="none" stroke="rgb(255,255,255)" font-family="geogebra-sans-serif, sans-serif" font-size="16px" font-style="normal" font-weight="normal" text-decoration="normal" x="493" y="128" text-anchor="start" dominant-baseline="alphabetic" stroke-opacity="1" stroke-linecap="round" stroke-linejoin="bevel" stroke-miterlimit="10" stroke-width="3">D'</text><text fill="rgb(21,101,192)" stroke="none" font-family="geogebra-sans-serif, sans-serif" font-size="16px" font-style="normal" font-weight="normal" text-decoration="normal" x="493" y="128" text-anchor="start" dominant-baseline="alphabetic" fill-opacity="1">D'</text><path fill="rgb(97,97,97)" stroke="none" paint-order="stroke fill markers" d=" M 271.5322673497973 689.3993585046164 C 271.5322673497973 691.6084975039396 269.74140634912044 693.3993585046164 267.5322673497973 693.3993585046164 C 265.3231283504741 693.3993585046164 263.5322673497973 691.6084975039396 263.5322673497973 689.3993585046164 C 263.5322673497973 687.1902195052933 265.3231283504741 685.3993585046164 267.5322673497973 685.3993585046164 C 269.74140634912044 685.3993585046164 271.5322673497973 687.1902195052933 271.5322673497973 689.3993585046164 Z" fill-opacity="1"/><path fill="none" stroke="rgb(0,0,0)" paint-order="fill stroke markers" d=" M 271.5322673497973 689.3993585046164 C 271.5322673497973 691.6084975039396 269.74140634912044 693.3993585046164 267.5322673497973 693.3993585046164 C 265.3231283504741 693.3993585046164 263.5322673497973 691.6084975039396 263.5322673497973 689.3993585046164 C 263.5322673497973 687.1902195052933 265.3231283504741 685.3993585046164 267.5322673497973 685.3993585046164 C 269.74140634912044 685.3993585046164 271.5322673497973 687.1902195052933 271.5322673497973 689.3993585046164 Z" stroke-opacity="1" stroke-linecap="round" stroke-linejoin="round" stroke-miterlimit="10"/><text fill="none" stroke="rgb(255,255,255)" font-family="geogebra-sans-serif, sans-serif" font-size="16px" font-style="normal" font-weight="normal" text-decoration="normal" x="272" y="681" text-anchor="start" dominant-baseline="alphabetic" stroke-opacity="1" stroke-linecap="round" stroke-linejoin="bevel" stroke-miterlimit="10" stroke-width="3">O</text><text fill="rgb(97,97,97)" stroke="none" font-family="geogebra-sans-serif, sans-serif" font-size="16px" font-style="normal" font-weight="normal" text-decoration="normal" x="272" y="681" text-anchor="start" dominant-baseline="alphabetic" fill-opacity="1">O</text></g></g></svg>